<?xml version="1.0" encoding="utf-8"?>
<!-- Generator: Adobe Illustrator 16.0.0, SVG Export Plug-In . SVG Version: 6.00 Build 0)  -->
<!DOCTYPE svg PUBLIC "-//W3C//DTD SVG 1.1//EN" "http://www.w3.org/Graphics/SVG/1.1/DTD/svg11.dtd">
<svg version="1.1" id="Layer_1" xmlns="http://www.w3.org/2000/svg" xmlns:xlink="http://www.w3.org/1999/xlink" x="0px" y="0px"
	 width="1250px" height="924.5px" viewBox="0 313 1250 924.5" enable-background="new 0 313 1250 924.5" xml:space="preserve">
<path fill="#FFFFFF" stroke="#FFFFFF" stroke-width="0.0938" d="M142.6,315.615c4-3.8,12.4-1.7,12.601,4.4c0.1,16.6,0,33.2,0.1,49.8
	c59.8,1.1,119.4,13.8,174.399,37.5c67.101,29,126.9,74.101,174.4,129.601c51.5,60.199,88.7,132.299,109.3,208.699
	c1.5,5.301,2.5,10.7,4.2,16c0.1-126.5,0-253.099,0-379.599c0.1-3.4-0.7-7.7,2.3-10.2c4.2-4.1,12.8-1.2,12.5,5.1
	c0.101,127.6-0.1,255.1,0,382.699c7.7-31.1,17.5-61.6,30.4-90.899c31.6-72.2,79.3-137.5,139.6-188.299
	c44.601-37.601,96.2-66.9,151.4-85.7c45.3-15.5,93-24,140.899-24.9c0-15.9,0.101-31.9,0-47.9c0-1.7,0.101-3.6,1.101-5.1
	c2.8-4.1,9.7-4.1,12.5-0.1c1.2,1.9,1.1,4.2,1.2,6.3c0,109.7,0,219.3,0,329c-0.101,23,0.1,46-0.101,69
	c-0.399,35.1-10.5,70.5-31.2,99.2c-21.5,30.399-52.5,54.3-88,65.899c-19,6.4-39.199,8.5-59.199,8.7
	c-99.5,0.2-199.101,0-298.601,0.101c0,11.1,0,22.1,0,33.199c0,1.9-0.2,4.101-1.6,5.7c-2.9,3.3-8.7,3.3-11.601,0
	c-1.399-1.6-1.6-3.8-1.6-5.7c0-11.1,0-22.1,0-33.199c-100.5-0.101-201.1,0-301.6,0c-34.9,0-69.601-10.801-98.601-30.301
	c-27.1-18.1-49.199-43.8-62.3-73.6c-7-15.8-11.399-32.7-13.2-49.8c-1.699-16-1.199-32.101-1.3-48.2c0-122.7,0-245.299,0-368
	C140.7,321.815,139.9,318.015,142.6,315.615 M155.2,491.515c0.1,75.8,0,151.7,0.1,227.5c0,16.9,2.1,33.9,7.5,49.9
	c10.3,32.199,31.3,60.899,58.9,80.399c28.1,20.2,62.699,30.9,97.3,30.8c99.5,0,199,0.101,298.6,0c-0.6-35.699-4.6-71.5-13.4-106.1
	c-7.899-31.5-19.8-62-36.3-89.9c-17.3-29.8-39.6-56.8-65.3-79.699c-27.6-24.601-59.2-44.7-92.6-60.4
	c-34.101-16-70.101-27.7-106.801-36C254.6,497.115,204.9,491.916,155.2,491.515 M864.5,532.715c-52.9,21.3-102.5,52.5-141.101,94.7
	c-20.3,22.199-37.399,47.3-50.7,74.3c-27.399,55.2-39.3,117.1-40.3,178.399c89.9,0.101,179.8,0,269.601,0
	c22-0.1,44.199,1.101,65.899-3.5c35.101-6.5,66.9-26.8,89.8-53.899c20.801-24.601,34-55.601,36.2-87.7c1.5-22.7,0.601-45.4,0.8-68
	c0.101-58.5,0-117,0.101-175.5C1016.5,492.115,937.4,503.315,864.5,532.715z"/>
<g>
	<path fill="#FFFFFF" d="M140.563,964.683h183.71c25.894,0,49.569,4.435,71.035,13.298c21.46,8.868,37.557,23.445,48.29,43.74
		c10.728,20.295,16.096,42.461,16.096,66.484c0,13.298-1.399,26.245-4.199,38.842c-2.799,12.598-9.158,26.945-19.071,43.041
		c-9.918,16.097-26.129,27.704-48.639,34.817c-22.515,7.118-47.185,10.673-74.009,10.673H140.563V964.683z M277.384,1149.093h9.098
		c13.997,0,26.184-1.455,36.567-4.375c10.377-2.914,18.661-9.387,24.845-19.421c6.178-10.026,9.272-21.81,9.272-35.342
		c0-11.896-2.859-23.149-8.573-33.767c-5.719-10.613-14.467-17.437-26.244-20.471c-11.783-3.029-25.605-4.55-41.466-4.55h-40.591
		v117.925H277.384z"/>
	<path fill="#FFFFFF" d="M722.834,964.683c8.862,0,16.911,0.7,24.145,2.1c7.228,1.4,13.997,3.734,20.295,6.999
		c11.898,6.068,20.646,13.532,26.244,22.395c5.6,8.169,9.214,16.096,10.849,23.795c0.93,3.499,1.63,6.884,2.1,10.148
		c0.465,3.269,0.7,6.998,0.7,11.196c0,11.669-1.985,22.631-5.949,32.894c-3.5,10.268-10.033,19.071-19.596,26.419
		c-9.568,7.349-20.767,12.772-33.592,16.272l65.085,98.678H702.888l-52.838-90.281h-54.938v90.281h-99.728V964.683H722.834z
		 M594.762,1072.109H653.9h9.447h3.849c4.199,0,8.049-0.115,11.548-0.351c3.499-0.229,6.648-0.699,9.448-1.399
		c5.363-1.399,9.737-4.314,13.122-8.747c3.379-4.429,5.074-9.329,5.074-14.698c0-3.498-1.109-7.638-3.324-12.422
		c-2.22-4.778-5.72-7.698-10.498-8.747c-4.784-1.05-9.157-1.805-13.122-2.275c-3.97-0.464-8.633-0.699-13.996-0.699h-6.999h-63.687
		V1072.109z"/>
	<path fill="#FFFFFF" d="M951.336,1096.954v41.641H831.312v-41.641H951.336z"/>
	<path fill="#FFFFFF" d="M1109.5,964.683v250.896h-95.18v-157.466c-12.833,4.746-24.09,7.742-33.768,8.983
		c-9.683,1.247-19.892,1.864-30.618,1.864v-62.636c6.764,0,14.461-1.154,23.095-3.473c4.898-1.383,9.388-2.827,13.472-4.336
		c4.08-1.503,8.398-3.411,12.948-5.724c4.549-2.313,8.397-4.451,11.548-6.419c3.148-1.969,6.237-4.222,9.272-6.77
		c5.828-5.085,10.377-10.06,13.646-14.921H1109.5z"/>
</g>
</svg>
