<?xml version="1.0" encoding="UTF-8" ?>
<!DOCTYPE svg PUBLIC "-//W3C//DTD SVG 1.1//EN" "http://www.w3.org/Graphics/SVG/1.1/DTD/svg11.dtd">
<svg width="512pt" height="512pt" viewBox="0 0 512 512" version="1.1" xmlns="http://www.w3.org/2000/svg">
<path fill="#fefefe" stroke="#fefefe" stroke-width="0.09375" opacity="1.00" d=" M 108.0 0.0 L 130.9 0.0 C 131.0 7.6 131.1 15.2 131.3 22.8 C 138.4 22.8 145.5 22.8 152.7 22.8 C 152.8 15.2 153.0 7.6 153.1 0.0 L 176.0 0.0 C 176.1 23.0 176.0 46.0 176.0 69.0 C 168.3 69.0 160.7 69.0 153.1 69.0 C 153.0 61.3 153.0 53.7 152.9 46.0 C 145.6 46.0 138.3 46.0 131.1 46.0 C 131.0 53.7 131.0 61.3 130.9 69.0 C 123.3 69.0 115.7 69.0 108.0 69.0 C 108.0 46.0 107.9 23.0 108.0 0.0 Z" />
<path fill="#fefefe" stroke="#fefefe" stroke-width="0.09375" opacity="1.00" d=" M 186.0 0.0 L 249.0 0.0 C 249.0 7.6 249.0 15.3 248.9 22.9 C 242.3 23.0 235.7 23.0 229.0 23.1 C 229.0 38.4 229.0 53.7 229.0 69.0 C 221.3 69.0 213.7 69.0 206.0 69.0 C 206.0 53.7 206.0 38.4 206.0 23.1 C 199.3 23.1 192.7 23.0 186.0 22.9 C 186.0 15.3 186.0 7.6 186.0 0.0 Z" />
<path fill="#fefefe" stroke="#fefefe" stroke-width="0.09375" opacity="1.00" d=" M 260.0 0.0 L 283.5 0.0 C 288.6 7.9 293.3 16.1 298.3 24.2 C 303.5 16.2 307.9 7.7 313.5 0.0 L 337.0 0.0 C 337.1 23.0 337.0 46.0 337.0 69.0 C 329.3 69.0 321.7 69.0 314.0 69.0 C 314.0 57.9 314.0 46.8 313.8 35.8 C 308.6 43.6 303.5 51.5 298.4 59.5 C 292.9 51.6 287.7 43.5 282.2 35.6 C 282.0 46.8 282.0 57.9 281.9 69.0 C 274.6 69.0 267.3 69.0 260.0 69.0 C 260.0 46.0 259.9 23.0 260.0 0.0 Z" />
<path fill="#fefefe" stroke="#fefefe" stroke-width="0.09375" opacity="1.00" d=" M 349.0 0.0 L 372.0 0.0 C 372.0 15.3 372.0 30.6 372.0 46.0 C 382.7 46.0 393.3 46.0 404.0 46.0 C 404.0 53.7 404.0 61.3 404.0 69.0 C 385.7 69.0 367.3 69.0 349.0 69.0 C 349.0 46.0 348.9 23.0 349.0 0.0 Z" />
<path fill="#fefefe" stroke="#fefefe" stroke-width="0.09375" opacity="1.00" d=" M 74.8 101.0 C 195.6 101.0 316.4 101.0 437.2 101.0 C 426.2 224.3 415.3 347.6 404.1 470.9 C 355.2 484.5 306.1 497.5 257.5 512.0 L 254.6 512.0 C 205.8 497.4 156.3 485.1 107.6 470.4 C 96.5 347.3 85.3 224.2 74.8 101.0 M 142.0 176.0 C 146.1 222.0 150.5 268.0 154.2 314.0 C 206.7 314.0 259.1 314.0 311.6 314.0 C 309.5 333.5 308.4 353.1 306.1 372.7 C 290.0 376.2 274.3 381.5 258.3 385.3 C 255.4 386.0 252.4 385.2 249.6 384.5 C 234.9 380.4 220.3 376.2 205.5 372.4 C 204.3 360.3 203.1 348.2 201.9 336.0 C 186.6 336.0 171.3 336.0 156.0 336.0 C 158.6 359.8 160.6 383.7 162.5 407.5 C 190.2 415.6 218.2 423.0 246.0 431.0 C 250.9 432.1 256.1 434.8 261.1 432.2 C 290.3 423.8 319.6 415.8 348.9 407.8 C 353.3 361.2 357.8 314.7 361.2 268.0 C 306.2 267.9 251.1 268.1 196.0 268.0 C 194.4 252.7 193.2 237.3 191.9 222.0 C 249.7 222.0 307.5 222.0 365.2 222.0 C 367.0 206.7 368.9 191.4 369.2 176.0 C 293.4 176.0 217.7 176.0 142.0 176.0 Z" />
</svg>
